<?xml version="1.0" encoding="utf-8"?>
<!-- Generator: Adobe Illustrator 22.1.0, SVG Export Plug-In . SVG Version: 6.00 Build 0)  -->
<svg version="1.1" id="Layer_1" xmlns="http://www.w3.org/2000/svg" xmlns:xlink="http://www.w3.org/1999/xlink" x="0px" y="0px"
	 viewBox="0 0 216 28.1" style="enable-background:new 0 0 216 28.1;" xml:space="preserve">
<g>
	<g>
		<g>
			<path d="M8.3,19.4v-0.2h1.3V8.8H8.3V8.6h4.9c0.8,0,1.5,0.1,2.2,0.3c0.6,0.2,1.2,0.6,1.7,1c0.5,0.4,0.8,1,1,1.6
				c0.2,0.7,0.4,1.4,0.4,2.2c0,0.8-0.1,1.5-0.3,2.2c-0.2,0.7-0.5,1.3-1,1.8c-0.4,0.5-1,0.9-1.6,1.2c-0.7,0.3-1.4,0.4-2.3,0.4H8.3z
				 M13.1,19.2c0.5,0,1-0.1,1.4-0.4c0.4-0.3,0.8-0.6,1.1-1.1c0.3-0.5,0.5-1,0.7-1.7c0.2-0.7,0.3-1.4,0.3-2.2c0-0.7-0.1-1.4-0.2-2
				c-0.1-0.6-0.4-1.2-0.7-1.6c-0.3-0.4-0.7-0.8-1.1-1c-0.5-0.2-1-0.4-1.7-0.4h-1.6v10.4H13.1z"/>
			<path d="M29.4,19.7c-0.8,0-1.5-0.1-2.1-0.4c-0.6-0.3-1.2-0.7-1.6-1.1c-0.5-0.5-0.8-1.1-1-1.7c-0.2-0.7-0.4-1.4-0.4-2.2
				c0-1.6,0.4-3,1.3-4c0.9-1,2.3-1.6,4.1-1.9c0.8,0,1.5,0.1,2.1,0.4c0.6,0.3,1.2,0.7,1.6,1.1c0.5,0.5,0.8,1.1,1.1,1.7
				s0.4,1.4,0.4,2.2c0,1.6-0.4,3-1.3,4C32.6,18.8,31.3,19.4,29.4,19.7z M29.9,19.4c0.5,0,0.9-0.1,1.3-0.4c0.4-0.3,0.7-0.6,1-1.1
				c0.3-0.5,0.5-1,0.6-1.6c0.1-0.6,0.2-1.3,0.2-2c0-0.8-0.1-1.5-0.3-2.2c-0.2-0.7-0.4-1.3-0.8-1.8c-0.3-0.5-0.7-0.9-1.2-1.2
				c-0.5-0.3-0.9-0.4-1.5-0.4c-0.5,0-0.9,0.1-1.3,0.4c-0.4,0.3-0.7,0.6-1,1.1c-0.3,0.5-0.5,1-0.6,1.6c-0.1,0.6-0.2,1.3-0.2,2
				c0,0.8,0.1,1.5,0.3,2.2c0.2,0.7,0.4,1.3,0.8,1.8c0.3,0.5,0.7,0.9,1.2,1.2C28.9,19.2,29.3,19.4,29.9,19.4z"/>
			<path d="M43.8,19.5L40.3,8.9l-0.9-0.1V8.7h4v0.2l-1.3,0.1l2.7,8.7l1.9-6.2L46,8.9L45,8.8V8.7h4v0.2l-1.3,0.1l2.7,8.7l2.7-8.7
				h-1.3V8.7h2.6v0.2l-1,0.1l-3.3,10.4l-0.8,0.2l-2.6-7.8l-2.3,7.6L43.8,19.5z"/>
			<path d="M68.1,19.5L61.5,9.1v10.1l1.3,0.1v0.2H60v-0.2l1.2-0.1V8.9L60,8.8V8.7h3.1l5.4,8.5V8.9l-1.3-0.1V8.7h2.7v0.2l-1.2,0.1
				v10.6H68.1z"/>
			<path d="M75.6,19.3l1.2-0.1V8.9l-1.2-0.1V8.7h8.3v2.8h-0.2l-1-2.6h-4.2v4.8h2.4l0.7-1.8h0.2v3.9h-0.2l-0.7-1.8h-2.4v5.3h4.3
				l1-2.7h0.2v2.9h-8.4V19.3z"/>
			<path d="M92.2,19.5v-0.2h1.7v-4l-3.4-6.3l-1.1-0.1V8.7h4.4v0.2h-1.3l3.1,5.8l3.1-5.8H97V8.7h2.8v0.2l-1.1,0.1L95.5,15v4.2h1.6
				v0.2H92.2z"/>
		</g>
	</g>
	<g>
		<g>
			<path d="M127.5,19.3l1.2-0.1V8.9l-1.2-0.1V8.7h8.3v2.8h-0.2l-1-2.6h-4.2v4.8h2.4l0.7-1.8h0.2v3.9h-0.2l-0.7-1.8h-2.4v5.3h4.3
				l1-2.7h0.2v2.9h-8.4V19.3z"/>
			<path d="M146.2,19.7l-3.8-10.8l-1.1-0.1V8.7h4.2v0.1l-1.3,0.1l3.2,9.2l3.1-9.2l-1.3-0.1V8.7h2.7v0.2l-1.2,0.1l-3.5,10.4
				L146.2,19.7z"/>
			<path d="M157.4,19.3l1.2-0.1V8.9l-1.2-0.1V8.7h8.3v2.8h-0.2l-1-2.6h-4.2v4.8h2.4l0.7-1.8h0.2v3.9h-0.2l-0.7-1.8h-2.4v5.3h4.3
				l1-2.7h0.2v2.9h-8.4V19.3z"/>
			<path d="M179.4,19.5l-6.6-10.4v10.1l1.3,0.1v0.2h-2.7v-0.2l1.2-0.1V8.9l-1.2-0.1V8.7h3.1l5.4,8.5V8.9l-1.3-0.1V8.7h2.7v0.2
				l-1.2,0.1v10.6H179.4z"/>
			<path d="M193.3,19.5h-4.4v-0.2h1.4V8.9h-2.2l-1.1,2.8h-0.2v-3h8.5v3h-0.2l-1.1-2.8h-2.2v10.4h1.4V19.5z"/>
			<path d="M201.7,18c0.3,0.3,0.7,0.6,1.1,0.9c0.4,0.3,0.9,0.4,1.4,0.4c0.6,0,1.2-0.2,1.5-0.5c0.4-0.4,0.6-0.8,0.6-1.4
				c0-0.5-0.1-0.9-0.4-1.3s-0.7-0.7-1.3-1.1l-1.9-1.1c-0.3-0.2-0.5-0.3-0.7-0.5c-0.2-0.2-0.4-0.3-0.6-0.5c-0.2-0.2-0.3-0.4-0.4-0.6
				c-0.1-0.2-0.1-0.5-0.1-0.8c0-0.8,0.3-1.4,0.9-1.9c0.6-0.5,1.4-0.9,2.6-1.1c1.1,0,2,0.2,2.9,0.6v2.5h-0.2l-0.8-2
				c-0.3-0.3-0.6-0.5-0.9-0.6c-0.3-0.1-0.7-0.2-1.1-0.2c-0.6,0-1.1,0.2-1.5,0.5c-0.4,0.3-0.5,0.8-0.5,1.3c0,0.5,0.1,0.8,0.4,1.1
				c0.3,0.3,0.7,0.6,1.2,0.9l1.9,1.1c0.6,0.4,1.1,0.8,1.4,1.2c0.3,0.4,0.5,0.9,0.5,1.5c0,0.3-0.1,0.7-0.2,1
				c-0.1,0.3-0.3,0.6-0.6,0.9c-0.3,0.3-0.7,0.6-1.1,0.8c-0.5,0.2-1.1,0.4-1.8,0.6c-0.7,0-1.2-0.1-1.7-0.2c-0.5-0.2-0.9-0.4-1.4-0.7
				v-2.5h0.2L201.7,18z"/>
		</g>
	</g>
	<rect x="107.7" y="19.2" width="10" height="0.4"/>
	<g>
		<g>
			<path d="M108.4,13c0,0,0.1-0.1,0.1-0.1c0.1-0.1,0.1-0.1,0.2-0.1c0,0,0.6,0.5,1.2,0.5c0.6,0,0.9-0.4,0.9-0.8
				c0-0.5-0.4-0.8-1.2-1.1c-0.8-0.3-1.2-0.6-1.2-1.4c0-0.5,0.4-1.2,1.5-1.2c0.7,0,1.2,0.4,1.2,0.4c0,0,0.1,0.1,0,0.2
				c0,0-0.1,0.1-0.1,0.1c-0.1,0.1-0.1,0.1-0.2,0.1c0,0-0.5-0.3-0.9-0.3c-0.7,0-1,0.5-1,0.8c0,0.5,0.4,0.7,0.9,1
				c0.9,0.4,1.5,0.7,1.5,1.5c0,0.7-0.7,1.2-1.5,1.2c-0.8,0-1.4-0.5-1.5-0.6C108.3,13.2,108.3,13.1,108.4,13z"/>
			<path d="M115.5,9.3h-1.2c-0.1,0-0.1-0.1-0.1-0.1V9c0-0.1,0.1-0.1,0.1-0.1h2.9c0.1,0,0.1,0.1,0.1,0.1v0.2c0,0.1-0.1,0.1-0.1,0.1
				H116v4.3c0,0.1-0.1,0.1-0.1,0.1h-0.3c-0.1,0-0.1-0.1-0.1-0.1V9.3z"/>
		</g>
	</g>
</g>
</svg>
